<svg width="166" height="47" viewBox="0 0 166 47" fill="none" xmlns="http://www.w3.org/2000/svg">
<g filter="url(#filter0_d_298_21)">
<path d="M9.48111 38.36C8.32911 38.36 7.34511 38.084 6.52911 37.532C5.73711 36.956 5.13711 36.2 4.72911 35.264C4.32111 34.304 4.11711 33.236 4.11711 32.06V18.74C4.11711 17.876 4.33311 17.06 4.76511 16.292C5.19711 15.524 5.76111 14.852 6.45711 14.276C7.17711 13.7 7.96911 13.256 8.83311 12.944C9.69711 12.608 10.5611 12.44 11.4251 12.44C12.6011 12.44 13.7411 12.728 14.8451 13.304C15.9491 13.856 16.8611 14.612 17.5811 15.572C18.3251 16.508 18.6971 17.564 18.6971 18.74V21.296H13.3691V19.28C13.3691 18.728 13.1531 18.296 12.7211 17.984C12.3131 17.648 11.8811 17.48 11.4251 17.48C10.9691 17.48 10.5251 17.648 10.0931 17.984C9.68511 18.296 9.48111 18.728 9.48111 19.28V31.34C9.48111 31.868 9.70911 32.336 10.1651 32.744C10.6211 33.152 11.1131 33.356 11.6411 33.356C12.1931 33.356 12.6971 33.152 13.1531 32.744C13.6091 32.336 13.8371 31.868 13.8371 31.34V29.036H11.3891V23.996H18.6971V38H13.8371V36.74H13.2971C13.1771 37.052 12.8891 37.328 12.4331 37.568C12.0011 37.808 11.5091 38 10.9571 38.144C10.4291 38.288 9.93711 38.36 9.48111 38.36ZM20.8515 38V12.8H26.2155V22.7H28.1235V12.8H33.4515V38H28.1235V28.1H26.2155V38H20.8515ZM41.5655 38.36C40.4135 38.36 39.3575 38.084 38.3975 37.532C37.4375 36.956 36.6695 36.2 36.0935 35.264C35.5415 34.304 35.2655 33.236 35.2655 32.06V18.74C35.2655 17.564 35.5415 16.508 36.0935 15.572C36.6695 14.612 37.4375 13.856 38.3975 13.304C39.3575 12.728 40.4135 12.44 41.5655 12.44C42.7175 12.44 43.7735 12.728 44.7335 13.304C45.6935 13.856 46.4495 14.612 47.0015 15.572C47.5775 16.508 47.8655 17.564 47.8655 18.74V32.06C47.8655 33.236 47.5775 34.304 47.0015 35.264C46.4495 36.2 45.6935 36.956 44.7335 37.532C43.7735 38.084 42.7175 38.36 41.5655 38.36ZM41.5655 33.608C41.8295 33.608 42.0455 33.524 42.2135 33.356C42.3815 33.164 42.4655 32.948 42.4655 32.708V18.056C42.4655 17.792 42.3815 17.576 42.2135 17.408C42.0455 17.216 41.8295 17.12 41.5655 17.12C41.3015 17.12 41.0735 17.216 40.8815 17.408C40.7135 17.576 40.6295 17.792 40.6295 18.056V32.708C40.6295 32.948 40.7135 33.164 40.8815 33.356C41.0735 33.524 41.3015 33.608 41.5655 33.608ZM55.6632 38.36C54.5112 38.36 53.4552 38.084 52.4952 37.532C51.5352 36.956 50.7672 36.2 50.1912 35.264C49.6392 34.304 49.3632 33.236 49.3632 32.06V12.8H54.7272V32.384C54.7272 32.648 54.8232 32.876 55.0152 33.068C55.2072 33.26 55.4232 33.356 55.6632 33.356C55.9272 33.356 56.1552 33.26 56.3472 33.068C56.5392 32.876 56.6352 32.648 56.6352 32.384V12.8H61.9632V32.06C61.9632 33.236 61.6752 34.304 61.0992 35.264C60.5472 36.2 59.7912 36.956 58.8312 37.532C57.8952 38.084 56.8392 38.36 55.6632 38.36ZM64.1288 38V12.8H69.4928V20H69.8528L71.3288 12.8H76.7288V13.52L73.1288 23.744V24.284L76.7288 37.28V38H71.3288L69.8528 30.224H69.4928V38H64.1288ZM78.2265 38V12.8H83.6625V38H78.2265ZM85.8202 38V12.8H95.9002V17.48H91.1842V22.7H94.3162V28.1H91.1842V33.356H95.9002V38H85.8202ZM100.943 38L97.703 13.34V12.8H103.067L103.751 30.8H104.219L104.903 12.8H110.303V13.34L107.063 38H100.943ZM111.801 38V12.8H121.881V17.48H117.165V22.7H120.297V28.1H117.165V33.356H121.881V38H111.801ZM123.332 38V12.8H128.84C130.136 12.8 131.324 13.124 132.404 13.772C133.484 14.396 134.336 15.248 134.96 16.328C135.608 17.384 135.932 18.572 135.932 19.892V24.104C135.932 24.728 135.776 25.544 135.464 26.552C135.152 27.536 134.564 28.424 133.7 29.216V29.756L135.932 38H130.532L129.02 31.052H128.696V38H123.332ZM128.696 26.408H128.984C129.416 26.408 129.776 26.288 130.064 26.048C130.376 25.784 130.532 25.136 130.532 24.104V19.784C130.532 18.776 130.376 18.14 130.064 17.876C129.776 17.612 129.416 17.48 128.984 17.48H128.696V26.408ZM143.694 38.36C142.542 38.36 141.486 38.084 140.526 37.532C139.566 36.956 138.798 36.2 138.222 35.264C137.67 34.304 137.394 33.236 137.394 32.06V29.18H142.758V32.24C142.758 32.48 142.842 32.708 143.01 32.924C143.202 33.116 143.43 33.212 143.694 33.212C143.958 33.212 144.186 33.116 144.378 32.924C144.57 32.708 144.666 32.48 144.666 32.24C144.666 32.024 144.642 31.844 144.594 31.7C144.546 31.532 144.438 31.316 144.27 31.052L139.95 23.996C139.638 23.468 139.278 22.916 138.87 22.34C138.462 21.74 138.114 21.152 137.826 20.576C137.538 19.976 137.394 19.412 137.394 18.884V18.74C137.394 17.564 137.67 16.508 138.222 15.572C138.798 14.612 139.566 13.856 140.526 13.304C141.486 12.728 142.542 12.44 143.694 12.44C144.87 12.44 145.926 12.728 146.862 13.304C147.822 13.856 148.578 14.612 149.13 15.572C149.706 16.508 149.994 17.564 149.994 18.74V21.296H144.666V18.524C144.666 18.26 144.57 18.032 144.378 17.84C144.186 17.648 143.958 17.552 143.694 17.552C143.454 17.552 143.238 17.648 143.046 17.84C142.854 18.032 142.758 18.26 142.758 18.524C142.758 18.692 142.782 18.836 142.83 18.956C142.902 19.052 142.998 19.208 143.118 19.424L147.582 26.516C148.134 27.404 148.674 28.292 149.202 29.18C149.73 30.044 149.994 30.956 149.994 31.916V32.06C149.994 33.236 149.706 34.304 149.13 35.264C148.578 36.2 147.822 36.956 146.862 37.532C145.926 38.084 144.87 38.36 143.694 38.36ZM151.809 38V12.8H161.889V17.48H157.173V22.7H160.305V28.1H157.173V33.356H161.889V38H151.809Z" fill="#050604"/>
</g>
<path d="M8.57681 38.36C7.42481 38.36 6.44081 38.084 5.62481 37.532C4.83281 36.956 4.23281 36.2 3.82481 35.264C3.41681 34.304 3.21281 33.236 3.21281 32.06V18.74C3.21281 17.876 3.42881 17.06 3.86081 16.292C4.29281 15.524 4.85681 14.852 5.55281 14.276C6.27281 13.7 7.06481 13.256 7.92881 12.944C8.79281 12.608 9.65681 12.44 10.5208 12.44C11.6968 12.44 12.8368 12.728 13.9408 13.304C15.0448 13.856 15.9568 14.612 16.6768 15.572C17.4208 16.508 17.7928 17.564 17.7928 18.74V21.296H12.4648V19.28C12.4648 18.728 12.2488 18.296 11.8168 17.984C11.4088 17.648 10.9768 17.48 10.5208 17.48C10.0648 17.48 9.62081 17.648 9.18881 17.984C8.78081 18.296 8.57681 18.728 8.57681 19.28V31.34C8.57681 31.868 8.80481 32.336 9.26081 32.744C9.71681 33.152 10.2088 33.356 10.7368 33.356C11.2888 33.356 11.7928 33.152 12.2488 32.744C12.7048 32.336 12.9328 31.868 12.9328 31.34V29.036H10.4848V23.996H17.7928V38H12.9328V36.74H12.3928C12.2728 37.052 11.9848 37.328 11.5288 37.568C11.0968 37.808 10.6048 38 10.0528 38.144C9.52481 38.288 9.03281 38.36 8.57681 38.36Z" fill="#A0CF7E"/>
<path d="M100.42 38L97.1796 13.34V12.8H102.544L103.228 30.8H103.696L104.38 12.8H109.78V13.34L106.54 38H100.42Z" fill="#A0CF7E"/>
<defs>
<filter id="filter0_d_298_21" x="0.117188" y="12.4404" width="165.771" height="33.9199" filterUnits="userSpaceOnUse" color-interpolation-filters="sRGB">
<feFlood flood-opacity="0" result="BackgroundImageFix"/>
<feColorMatrix in="SourceAlpha" type="matrix" values="0 0 0 0 0 0 0 0 0 0 0 0 0 0 0 0 0 0 127 0" result="hardAlpha"/>
<feOffset dy="4"/>
<feGaussianBlur stdDeviation="2"/>
<feComposite in2="hardAlpha" operator="out"/>
<feColorMatrix type="matrix" values="0 0 0 0 0 0 0 0 0 0 0 0 0 0 0 0 0 0 0.25 0"/>
<feBlend mode="normal" in2="BackgroundImageFix" result="effect1_dropShadow_298_21"/>
<feBlend mode="normal" in="SourceGraphic" in2="effect1_dropShadow_298_21" result="shape"/>
</filter>
</defs>
</svg>
