<svg width="58" height="79" viewBox="0 0 58 79" fill="none" xmlns="http://www.w3.org/2000/svg">
<line x1="2" y1="77" x2="53" y2="77" stroke="#A0CF7E" stroke-width="2"/>
<line x1="2" y1="74" x2="53" y2="74" stroke="#050604" stroke-width="2"/>
<path d="M11.581 68.64C9.533 68.64 7.78367 68.1493 6.333 67.168C4.925 66.144 3.85833 64.8 3.133 63.136C2.40767 61.4293 2.045 59.5307 2.045 57.44V33.76C2.045 32.224 2.429 30.7733 3.197 29.408C3.965 28.0427 4.96767 26.848 6.205 25.824C7.485 24.8 8.893 24.0107 10.429 23.456C11.965 22.8587 13.501 22.56 15.037 22.56C17.1277 22.56 19.1543 23.072 21.117 24.096C23.0797 25.0773 24.701 26.4213 25.981 28.128C27.3037 29.792 27.965 31.6693 27.965 33.76V38.304H18.493V34.72C18.493 33.7387 18.109 32.9707 17.341 32.416C16.6157 31.8187 15.8477 31.52 15.037 31.52C14.2263 31.52 13.437 31.8187 12.669 32.416C11.9437 32.9707 11.581 33.7387 11.581 34.72V56.16C11.581 57.0987 11.9863 57.9307 12.797 58.656C13.6077 59.3813 14.4823 59.744 15.421 59.744C16.4023 59.744 17.2983 59.3813 18.109 58.656C18.9197 57.9307 19.325 57.0987 19.325 56.16V52.064H14.973V43.104H27.965V68H19.325V65.76H18.365C18.1517 66.3147 17.6397 66.8053 16.829 67.232C16.061 67.6587 15.1863 68 14.205 68.256C13.2663 68.512 12.3917 68.64 11.581 68.64Z" fill="#050604"/>
<path d="M11.581 67.64C9.533 67.64 7.78367 67.1493 6.333 66.168C4.925 65.144 3.85833 63.8 3.133 62.136C2.40767 60.4293 2.045 58.5307 2.045 56.44V32.76C2.045 31.224 2.429 29.7733 3.197 28.408C3.965 27.0427 4.96767 25.848 6.205 24.824C7.485 23.8 8.893 23.0107 10.429 22.456C11.965 21.8587 13.501 21.56 15.037 21.56C17.1277 21.56 19.1543 22.072 21.117 23.096C23.0797 24.0773 24.701 25.4213 25.981 27.128C27.3037 28.792 27.965 30.6693 27.965 32.76V37.304H18.493V33.72C18.493 32.7387 18.109 31.9707 17.341 31.416C16.6157 30.8187 15.8477 30.52 15.037 30.52C14.2263 30.52 13.437 30.8187 12.669 31.416C11.9437 31.9707 11.581 32.7387 11.581 33.72V55.16C11.581 56.0987 11.9863 56.9307 12.797 57.656C13.6077 58.3813 14.4823 58.744 15.421 58.744C16.4023 58.744 17.2983 58.3813 18.109 57.656C18.9197 56.9307 19.325 56.0987 19.325 55.16V51.064H14.973V42.104H27.965V67H19.325V64.76H18.365C18.1517 65.3147 17.6397 65.8053 16.829 66.232C16.061 66.6587 15.1863 67 14.205 67.256C13.2663 67.512 12.3917 67.64 11.581 67.64Z" fill="#A0CF7E"/>
<path d="M38.0238 68L32.2638 24.16V23.2H41.7998L43.0158 55.2H43.8478L45.0638 23.2H54.6638V24.16L48.9038 68H38.0238Z" fill="#A0CF7E"/>
<path d="M39.0238 67L33.2638 23.16V22.2H42.7998L44.0158 54.2H44.8478L46.0638 22.2H55.6638V23.16L49.9038 67H39.0238Z" fill="#050604"/>
</svg>
