<svg width="202" height="107" viewBox="0 0 202 107" fill="none" xmlns="http://www.w3.org/2000/svg">
<path d="M168.333 22.9286H196.389C199.488 22.9286 202 24.6395 202 26.75C202 28.8605 199.488 30.5714 196.389 30.5714H168.333V49.6786C168.333 51.7891 165.821 53.5 162.722 53.5C159.623 53.5 157.111 51.7891 157.111 49.6786V30.5714H129.056C125.957 30.5714 123.444 28.8605 123.444 26.75C123.444 24.6395 125.957 22.9286 129.056 22.9286H157.111V3.82143C157.111 1.71091 159.623 0 162.722 0C165.821 0 168.333 1.71091 168.333 3.82143V22.9286ZM95.3889 22.9286C98.4878 22.9286 101 24.6395 101 26.75C101 28.8605 98.4878 30.5714 95.3889 30.5714H5.61111C2.51218 30.5714 0 28.8605 0 26.75C0 24.6395 2.51218 22.9286 5.61111 22.9286H95.3889ZM129.056 61.1429C132.154 61.1429 134.667 62.8538 134.667 64.9643C134.667 67.0748 132.154 68.7857 129.056 68.7857H5.61111C2.51218 68.7857 0 67.0748 0 64.9643C0 62.8538 2.51218 61.1429 5.61111 61.1429H129.056ZM196.389 99.3571C199.488 99.3571 202 101.068 202 103.179C202 105.289 199.488 107 196.389 107H5.61111C2.51218 107 0 105.289 0 103.179C0 101.068 2.51218 99.3571 5.61111 99.3571H196.389Z" fill="black"/>
</svg>
